<svg xmlns="http://www.w3.org/2000/svg" viewBox="0 0 400 250">
  <!-- Orange Suitcase -->
  <rect x="165" y="70" width="75" height="125" rx="5" fill="#FF9F43" stroke="#E67E22" stroke-width="2"/>
  <line x1="180" y1="70" x2="180" y2="195" stroke="#E67E22" stroke-width="2"/>
  <line x1="200" y1="70" x2="200" y2="195" stroke="#E67E22" stroke-width="2"/>
  <line x1="220" y1="70" x2="220" y2="195" stroke="#E67E22" stroke-width="2"/>
  <rect x="180" y="60" width="45" height="10" rx="2" fill="#E67E22" stroke="#E67E22" stroke-width="1"/>
  <rect x="195" y="55" width="15" height="5" rx="1" fill="#E67E22" stroke="#E67E22" stroke-width="1"/>
  
  <!-- Purple Suitcase -->
  <rect x="115" y="120" width="50" height="75" rx="5" fill="#9B59B6" stroke="#8E44AD" stroke-width="2"/>
  <circle cx="125" cy="130" r="3" fill="white" stroke="#8E44AD" stroke-width="1"/>
  <circle cx="135" cy="145" r="3" fill="white" stroke="#8E44AD" stroke-width="1"/>
  <circle cx="125" cy="160" r="3" fill="white" stroke="#8E44AD" stroke-width="1"/>
  <circle cx="140" cy="175" r="3" fill="white" stroke="#8E44AD" stroke-width="1"/>
  
  <!-- Green Backpack -->
  <rect x="240" y="120" width="50" height="70" rx="10" fill="#27AE60" stroke="#219653" stroke-width="2"/>
  <rect x="250" y="110" width="30" height="10" rx="5" fill="#27AE60" stroke="#219653" stroke-width="2"/>
  <rect x="255" y="90" width="20" height="20" rx="5" fill="#27AE60" stroke="#219653" stroke-width="2"/>
  <rect x="255" y="130" width="20" height="25" rx="3" fill="#1E8449" stroke="#219653" stroke-width="1"/>
  <circle cx="265" cy="140" r="5" fill="#F1C40F" stroke="#F39C12" stroke-width="1"/>
  
  <!-- Pink Bag -->
  <rect x="290" y="135" width="40" height="55" rx="5" fill="#E91E63" stroke="#C2185B" stroke-width="2"/>
  <rect x="298" y="125" width="25" height="10" rx="5" fill="#E91E63" stroke="#C2185B" stroke-width="2"/>
  <rect x="300" y="145" width="20" height="5" rx="2" fill="white" stroke="#C2185B" stroke-width="1"/>
  
  <!-- Speech Bubble -->
  <ellipse cx="335" cy="80" rx="35" ry="25" fill="white" stroke="#333" stroke-width="1.5"/>
  <path d="M305 85 L315 100 L325 80" fill="white" stroke="#333" stroke-width="1.5"/>
  <text x="335" y="85" font-family="Arial, sans-serif" font-size="16" text-anchor="middle" fill="#333">Ready?</text>
  
  <!-- Ground Shadow -->
  <ellipse cx="220" cy="200" rx="150" ry="10" fill="#F5F5F5"/>
</svg>